<svg width="218" height="108" viewBox="0 0 218 108" fill="none" xmlns="http://www.w3.org/2000/svg">
<g clip-path="url(#clip0_7_55)">
<rect x="10.1414" width="111.126" height="43.3805" rx="21.6903" transform="rotate(13.5196 10.1414 0)" fill="#FF9F9F"/>
<path d="M35.2088 20.9734L35.8222 18.4221L51.4411 22.1775L50.8277 24.7288L43.8272 23.0456L44.6607 22.522L40.3442 40.4743L37.3884 39.7637L41.7049 21.8113L42.1937 22.6529L35.2088 20.9734ZM60.371 45.2896L62.4806 36.5156C62.7923 35.2193 62.7168 34.1644 62.2541 33.351C61.8043 32.5298 61.0557 31.9932 60.0082 31.7414C59.1785 31.5419 58.3977 31.5955 57.6657 31.9022C56.9465 32.201 56.3111 32.7449 55.7594 33.5338C55.2206 34.3148 54.8015 35.3275 54.5023 36.5721L53.4444 36.3177C53.8858 34.482 54.4907 32.9928 55.2591 31.8502C56.0379 30.71 56.9454 29.9243 57.9816 29.4933C59.0202 29.0519 60.1566 28.9795 61.3908 29.2763C62.5938 29.5655 63.5454 30.0796 64.2454 30.8183C64.9558 31.5596 65.4091 32.4804 65.6053 33.5808C65.8039 34.6708 65.7424 35.8847 65.4208 37.2226L63.3112 45.9965L60.371 45.2896ZM49.8858 42.7685L54.999 21.5026L57.9547 22.2133L52.8415 43.4792L49.8858 42.7685ZM74.2064 49.044C72.9204 48.7348 71.8386 48.1237 70.9611 47.2106C70.0836 46.2974 69.481 45.1762 69.1534 43.8467C68.8361 42.5198 68.8645 41.0785 69.2386 39.5228C69.635 37.8738 70.2749 36.5357 71.1582 35.5084C72.044 34.4707 73.0816 33.7602 74.2708 33.377C75.46 32.9937 76.7028 32.9579 77.9992 33.2696C79.1608 33.5489 80.099 34.0268 80.814 34.7034C81.5315 35.3696 82.0483 36.163 82.3645 37.0838C82.6831 37.9942 82.8149 38.9748 82.7597 40.0257C82.7148 41.0791 82.5018 42.1249 82.1205 43.1632L71.4797 40.6048L71.8912 38.8935L80.5096 40.9657L79.6817 41.2604C79.8475 40.7078 79.9511 40.1403 79.9924 39.5578C80.0441 38.9778 80.0016 38.4246 79.8649 37.898C79.7307 37.3611 79.4691 36.8978 79.0801 36.508C78.7039 36.1104 78.1684 35.8281 77.4736 35.661C76.6024 35.4515 75.8189 35.4935 75.123 35.787C74.4375 36.0829 73.8558 36.5629 73.378 37.2269C72.9027 37.8806 72.5603 38.643 72.3508 39.5142L72.0628 40.712C71.8309 41.6766 71.7704 42.5671 71.8812 43.3836C71.9921 44.2002 72.2803 44.8948 72.746 45.4675C73.2246 46.0324 73.9046 46.4208 74.7861 46.6328C75.6469 46.8397 76.406 46.8083 77.0633 46.5385C77.7309 46.2712 78.2294 45.7492 78.5588 44.9727L81.5768 45.6984C81.1868 46.6358 80.6245 47.4002 79.8899 47.9916C79.1553 48.5829 78.2986 48.9748 77.3198 49.1673C76.3539 49.352 75.3161 49.3109 74.2064 49.044Z" fill="#0A0A0A"/>
</g>
<g clip-path="url(#clip1_7_55)">
<rect x="7" y="57.8876" width="169" height="50" rx="25" transform="rotate(-5.39432 7 57.8876)" fill="#8BFF79"/>
<path d="M46.4021 92.8583C44.1587 93.0702 42.1693 92.7089 40.4338 91.7746C38.7103 90.8258 37.3098 89.3978 36.2324 87.4906C35.1538 85.5702 34.4872 83.2626 34.2328 80.5679C33.9645 77.7272 34.2108 75.3 34.9715 73.2862C35.731 71.2592 36.8873 69.6768 38.4406 68.5391C40.0059 67.3868 41.8305 66.7123 43.9146 66.5155C46.7155 66.251 49.0114 66.7374 50.8023 67.9745C52.5919 69.1983 53.8635 70.8929 54.6171 73.0584L50.6484 74.2166C50.0314 72.7883 49.1638 71.6849 48.0457 70.9066C46.9263 70.115 45.6565 69.7862 44.2361 69.9204C42.9883 70.0382 41.8806 70.5044 40.9129 71.319C39.9452 72.1336 39.2171 73.2871 38.7285 74.7797C38.2388 76.2589 38.0942 78.0605 38.2947 80.1844C38.4802 82.149 38.902 83.8502 39.5601 85.288C40.2169 86.7126 41.0886 87.7887 42.1752 88.5165C43.2618 89.2442 44.5617 89.5366 46.0749 89.3937C47.9201 89.2195 49.3272 88.5911 50.2964 87.5085C51.2643 86.4127 51.6731 85.0683 51.5227 83.4754L55.6045 83.09C55.78 84.9484 55.5117 86.5741 54.7995 87.9672C54.0993 89.3458 53.0324 90.4577 51.5989 91.3029C50.1653 92.1481 48.4331 92.6666 46.4021 92.8583ZM62.087 90.8549L60.2726 71.6404L64.0558 71.2832L65.8701 90.4977L62.087 90.8549ZM64.0263 82.0336C63.7944 79.5778 63.8542 77.5164 64.2057 75.8493C64.5692 74.1677 65.1713 72.8854 66.012 72.0024C66.866 71.1182 67.9169 70.6172 69.1647 70.4994C69.5364 70.4643 69.884 70.4583 70.2076 70.4813C70.5445 70.503 70.8766 70.5453 71.204 70.6082L71.4199 74.3846C71.0528 74.3255 70.6536 74.2829 70.2226 74.2566C69.8036 74.2158 69.4215 74.2117 69.0764 74.2443C67.9879 74.3471 67.1261 74.7231 66.491 75.3723C65.8546 76.0083 65.4219 76.8862 65.1928 78.006C64.9625 79.1126 64.9188 80.4225 65.0617 81.9358L64.0263 82.0336ZM88.9882 88.3147L88.0948 83.9594L87.3409 75.9749C87.193 74.4086 86.7606 73.3043 86.0437 72.6622C85.3256 72.0068 84.263 71.7455 82.8559 71.8784C82.0595 71.9536 81.3606 72.1401 80.7592 72.438C80.1699 72.7213 79.718 73.1122 79.4035 73.6106C79.1022 74.1078 78.9848 74.7082 79.0512 75.4117L74.8698 75.8066C74.737 74.3995 74.9743 73.2253 75.5818 72.284C76.1894 71.3428 77.0916 70.6147 78.2885 70.0999C79.4974 69.5706 80.9315 69.2276 82.5908 69.0709C84.1439 68.9242 85.5356 69.054 86.7659 69.4601C87.9949 69.853 88.9861 70.563 89.7393 71.59C90.5058 72.6158 90.9705 73.9916 91.1335 75.7172L92.2935 88.0026L88.9882 88.3147ZM82.6257 89.4378C81.0195 89.5895 79.6591 89.4367 78.5445 88.9795C77.4286 88.5089 76.562 87.8408 75.9445 86.975C75.3403 86.108 74.9894 85.1567 74.8916 84.1214C74.7725 82.8603 74.9933 81.7948 75.554 80.9249C76.1268 80.0405 76.9651 79.3453 78.0691 78.8392C79.1731 78.3332 80.4684 78.01 81.9552 77.8696C82.9773 77.7731 83.9816 77.772 84.9682 77.8664C85.9548 77.9607 86.9337 78.116 87.905 78.3323L88.1212 80.6221C87.325 80.4161 86.4481 80.2779 85.4906 80.2076C84.5451 80.1228 83.6675 80.1186 82.8578 80.1951C81.6498 80.3091 80.6635 80.6433 79.8989 81.1977C79.1343 81.752 78.8059 82.6 78.9137 83.7416C78.9927 84.5778 79.3796 85.2712 80.0744 85.8217C80.768 86.3588 81.805 86.5622 83.1855 86.4319C84.1944 86.3366 85.0625 86.027 85.7897 85.5029C86.5158 84.9656 87.0586 84.3318 87.4182 83.6014C87.7778 82.8711 87.925 82.1607 87.8598 81.4705L88.7758 81.384C88.9011 82.7114 88.7449 83.965 88.3072 85.1447C87.8815 86.3099 87.1902 87.2858 86.2333 88.0726C85.2751 88.8461 84.0725 89.3012 82.6257 89.4378ZM100.574 87.2207L98.5113 65.3779C98.386 64.0504 98.5367 62.9514 98.9634 62.0808C99.4021 61.1956 100.027 60.5138 100.839 60.0353C101.651 59.5569 102.568 59.2694 103.59 59.1729C104.175 59.1177 104.776 59.1011 105.394 59.1231C106.025 59.1439 106.647 59.2057 107.259 59.3086L106.821 62.3231C106.437 62.2255 106.048 62.155 105.656 62.1117C105.277 62.0672 104.915 62.0612 104.569 62.0938C104.158 62.1326 103.767 62.2499 103.397 62.4455C103.026 62.6279 102.733 62.9301 102.519 63.3522C102.317 63.773 102.251 64.3484 102.32 65.0785L104.377 86.8616L100.574 87.2207ZM96.0011 70.9184L95.7585 68.3498L106.331 67.3514L106.574 69.92L96.0011 70.9184ZM119.739 85.9333C118.651 86.036 117.649 85.923 116.734 85.5943C115.819 85.2655 115.064 84.7141 114.469 83.9399C113.885 83.1513 113.534 82.1264 113.415 80.8654L111.595 61.5911L115.358 61.2358L117.167 80.3905C117.337 82.1959 118.265 83.0189 119.951 82.8597C120.469 82.8108 120.968 82.7101 121.45 82.5575C121.929 82.3917 122.471 82.1665 123.073 81.8819L123.865 84.5192C123.189 84.8776 122.514 85.1824 121.842 85.4334C121.183 85.6964 120.483 85.8631 119.739 85.9333ZM109.403 69.6529L109.16 67.0843L121.525 65.9167L121.768 68.4853L109.403 69.6529ZM128.821 84.5533L126.251 57.3344L130.034 56.9772L132.605 84.1961L128.821 84.5533ZM135.516 64.5956L139.757 64.1951L147.028 79.4993L146.252 79.5727L149.395 63.2851L153.257 62.9203L148.146 86.445C147.678 88.5785 146.968 90.2058 146.016 91.3269C145.078 92.4601 143.826 93.1006 142.26 93.2485C141.384 93.3312 140.53 93.298 139.699 93.1488C138.881 92.9983 138.034 92.7436 137.156 92.3845L136.835 88.9796C137.599 89.4164 138.324 89.7162 139.009 89.8792C139.694 90.0422 140.395 90.0899 141.111 90.0222C141.828 89.9545 142.418 89.6778 142.881 89.1921C143.359 88.7185 143.736 88.1069 144.014 87.3575C144.306 86.6201 144.538 85.8214 144.712 84.9613L145.11 83.0152L135.516 64.5956Z" fill="black"/>
</g>
<rect x="108" y="16" width="110" height="42" rx="21" fill="#FFE68D"/>
<path d="M141.428 45.312C140.388 45.312 139.432 45.128 138.56 44.76C137.688 44.384 136.984 43.828 136.448 43.092C135.92 42.356 135.644 41.436 135.62 40.332H137.852C137.852 40.996 138.012 41.54 138.332 41.964C138.66 42.388 139.092 42.704 139.628 42.912C140.164 43.112 140.756 43.212 141.404 43.212C142.06 43.212 142.64 43.112 143.144 42.912C143.648 42.712 144.036 42.444 144.308 42.108C144.588 41.772 144.728 41.388 144.728 40.956C144.728 40.372 144.548 39.904 144.188 39.552C143.828 39.192 143.28 38.888 142.544 38.64L139.7 37.584C138.476 37.128 137.544 36.604 136.904 36.012C136.264 35.412 135.944 34.58 135.944 33.516C135.944 32.308 136.416 31.328 137.36 30.576C138.304 29.816 139.632 29.436 141.344 29.436C142.968 29.436 144.228 29.812 145.124 30.564C146.028 31.316 146.544 32.34 146.672 33.636H144.428C144.316 32.98 144.008 32.46 143.504 32.076C143.008 31.692 142.288 31.5 141.344 31.5C140.432 31.5 139.72 31.7 139.208 32.1C138.696 32.492 138.44 32.988 138.44 33.588C138.44 34.084 138.6 34.48 138.92 34.776C139.248 35.072 139.756 35.34 140.444 35.58L143.684 36.768C144.796 37.16 145.664 37.688 146.288 38.352C146.912 39.016 147.224 39.86 147.224 40.884C147.224 41.748 147 42.512 146.552 43.176C146.104 43.84 145.448 44.364 144.584 44.748C143.72 45.124 142.668 45.312 141.428 45.312ZM159.264 45V38.232C159.264 37.232 159.024 36.476 158.544 35.964C158.072 35.444 157.432 35.184 156.624 35.184C155.984 35.184 155.424 35.36 154.944 35.712C154.472 36.056 154.104 36.564 153.84 37.236C153.584 37.9 153.456 38.712 153.456 39.672H152.64C152.64 38.256 152.82 37.064 153.18 36.096C153.548 35.128 154.072 34.396 154.752 33.9C155.432 33.396 156.248 33.144 157.2 33.144C158.128 33.144 158.912 33.352 159.552 33.768C160.2 34.184 160.692 34.776 161.028 35.544C161.364 36.304 161.532 37.2 161.532 38.232V45H159.264ZM151.176 45V28.596H153.456V45H151.176ZM170.215 45.312C169.167 45.312 168.227 45.084 167.395 44.628C166.571 44.172 165.919 43.492 165.439 42.588C164.959 41.684 164.719 40.568 164.719 39.24C164.719 37.888 164.959 36.764 165.439 35.868C165.919 34.964 166.571 34.284 167.395 33.828C168.227 33.372 169.167 33.144 170.215 33.144C171.247 33.144 172.175 33.372 172.999 33.828C173.823 34.284 174.471 34.964 174.943 35.868C175.423 36.764 175.663 37.888 175.663 39.24C175.663 40.568 175.423 41.684 174.943 42.588C174.471 43.492 173.823 44.172 172.999 44.628C172.175 45.084 171.247 45.312 170.215 45.312ZM170.143 43.32C170.807 43.32 171.379 43.16 171.859 42.84C172.347 42.52 172.719 42.056 172.975 41.448C173.239 40.832 173.371 40.096 173.371 39.24C173.371 37.928 173.103 36.912 172.567 36.192C172.039 35.472 171.275 35.112 170.275 35.112C169.603 35.112 169.023 35.276 168.535 35.604C168.055 35.924 167.683 36.392 167.419 37.008C167.163 37.616 167.035 38.36 167.035 39.24C167.035 40.528 167.303 41.532 167.839 42.252C168.375 42.964 169.143 43.32 170.143 43.32ZM184.656 45.312C183.816 45.312 183.088 45.124 182.472 44.748C181.856 44.364 181.384 43.804 181.056 43.068C180.736 42.324 180.576 41.404 180.576 40.308H181.464C181.464 40.94 181.6 41.476 181.872 41.916C182.144 42.348 182.5 42.68 182.94 42.912C183.388 43.136 183.864 43.248 184.368 43.248C184.896 43.248 185.408 43.1 185.904 42.804C186.408 42.5 186.82 42.048 187.14 41.448C187.46 40.848 187.62 40.104 187.62 39.216C187.62 38.368 187.476 37.644 187.188 37.044C186.908 36.444 186.524 35.984 186.036 35.664C185.548 35.344 185 35.184 184.392 35.184C183.88 35.184 183.4 35.308 182.952 35.556C182.504 35.796 182.144 36.152 181.872 36.624C181.6 37.088 181.464 37.656 181.464 38.328H180.576C180.576 37.168 180.76 36.204 181.128 35.436C181.504 34.668 182.008 34.096 182.64 33.72C183.272 33.336 183.972 33.144 184.74 33.144C185.644 33.144 186.492 33.388 187.284 33.876C188.076 34.356 188.716 35.048 189.204 35.952C189.7 36.856 189.948 37.944 189.948 39.216C189.948 40.488 189.7 41.58 189.204 42.492C188.708 43.404 188.056 44.104 187.248 44.592C186.448 45.072 185.584 45.312 184.656 45.312ZM179.184 50.664V33.456H181.068L181.464 36.228V50.664H179.184Z" fill="black"/>
<defs>
<clipPath id="clip0_7_55">
<rect x="10.1414" width="111.126" height="43.3805" rx="21.6903" transform="rotate(13.5196 10.1414 0)" fill="white"/>
</clipPath>
<clipPath id="clip1_7_55">
<rect x="7" y="57.8876" width="169" height="50" rx="25" transform="rotate(-5.39432 7 57.8876)" fill="white"/>
</clipPath>
</defs>
</svg>
